<svg xmlns="http://www.w3.org/2000/svg" width="1000" height="943" viewBox="-35 -60 70 66" font-family="EB Garamond, Georgia, serif">
<defs><marker id="fl" viewBox="0 0 10 10" refX="5" refY="5" markerWidth="1.8" markerHeight="1.8" markerUnits="userSpaceOnUse" orient="auto-start-reverse"><path d="M0,0 L10,5 L0,10 z" fill="#3a2f25"/></marker></defs>
<style>.cote line{stroke:#3a2f25;stroke-width:0.14}.cote text{fill:#3a2f25}</style>
<rect x="-35" y="-60" width="70" height="66" fill="#f6f0e2"/>
<rect x="-35" y="-50" width="70" height="50" fill="#d6cdbd" stroke="#3a2f25" stroke-width="0.28"/>
<rect x="-35" y="-51.2" width="70" height="1.2" fill="#c9bfae" stroke="#3a2f25" stroke-width="0.14"/>
<line x1="-35" y1="-2" x2="35" y2="-2" stroke="#bfb5a4" stroke-width="0.07"/>
<line x1="-35" y1="-4.2" x2="35" y2="-4.2" stroke="#bfb5a4" stroke-width="0.07"/>
<line x1="-35" y1="-6.4" x2="35" y2="-6.4" stroke="#bfb5a4" stroke-width="0.07"/>
<line x1="-35" y1="-8.6" x2="35" y2="-8.6" stroke="#bfb5a4" stroke-width="0.07"/>
<line x1="-35" y1="-10.8" x2="35" y2="-10.8" stroke="#bfb5a4" stroke-width="0.07"/>
<line x1="-35" y1="-13" x2="35" y2="-13" stroke="#bfb5a4" stroke-width="0.07"/>
<line x1="-35" y1="-15.2" x2="35" y2="-15.2" stroke="#bfb5a4" stroke-width="0.07"/>
<line x1="-35" y1="-17.4" x2="35" y2="-17.4" stroke="#bfb5a4" stroke-width="0.07"/>
<line x1="-35" y1="-19.6" x2="35" y2="-19.6" stroke="#bfb5a4" stroke-width="0.07"/>
<line x1="-35" y1="-21.8" x2="35" y2="-21.8" stroke="#bfb5a4" stroke-width="0.07"/>
<line x1="-35" y1="-24" x2="35" y2="-24" stroke="#bfb5a4" stroke-width="0.07"/>
<line x1="-35" y1="-26.2" x2="35" y2="-26.2" stroke="#bfb5a4" stroke-width="0.07"/>
<line x1="-35" y1="-28.4" x2="35" y2="-28.4" stroke="#bfb5a4" stroke-width="0.07"/>
<line x1="-35" y1="-30.6" x2="35" y2="-30.6" stroke="#bfb5a4" stroke-width="0.07"/>
<line x1="-35" y1="-32.8" x2="35" y2="-32.8" stroke="#bfb5a4" stroke-width="0.07"/>
<line x1="-35" y1="-35" x2="35" y2="-35" stroke="#bfb5a4" stroke-width="0.07"/>
<line x1="-35" y1="-37.2" x2="35" y2="-37.2" stroke="#bfb5a4" stroke-width="0.07"/>
<line x1="-35" y1="-39.4" x2="35" y2="-39.4" stroke="#bfb5a4" stroke-width="0.07"/>
<line x1="-35" y1="-41.6" x2="35" y2="-41.6" stroke="#bfb5a4" stroke-width="0.07"/>
<line x1="-35" y1="-43.8" x2="35" y2="-43.8" stroke="#bfb5a4" stroke-width="0.07"/>
<line x1="-35" y1="-46" x2="35" y2="-46" stroke="#bfb5a4" stroke-width="0.07"/>
<line x1="-35" y1="-48.2" x2="35" y2="-48.2" stroke="#bfb5a4" stroke-width="0.07"/>
<path d="M-7.6,0 L-7.6,-11 Q-7.6,-18.6 0,-18.6 Q7.6,-18.6 7.6,-11 L7.6,0 z" fill="#b9ae9b" stroke="#3a2f25" stroke-width="0.28"/>
<path d="M-6,0 L-6,-11 Q-6,-17 0,-17 Q6,-17 6,-11 L6,0 z" fill="#4a3a2c" stroke="#3a2f25" stroke-width="0.14"/>
<rect x="-6.2" y="-16" width="6.1" height="16" fill="#6a4a2e" stroke="#2b1f14" stroke-width="0.14"/><rect x="0.1" y="-16" width="6.1" height="16" fill="#6a4a2e" stroke="#2b1f14" stroke-width="0.14"/>
<line x1="-6.2" y1="-2.7" x2="6.2" y2="-2.7" stroke="#2b2b2b" stroke-width="0.28"/>
<line x1="-6.2" y1="-5.3" x2="6.2" y2="-5.3" stroke="#2b2b2b" stroke-width="0.28"/>
<line x1="-6.2" y1="-8" x2="6.2" y2="-8" stroke="#2b2b2b" stroke-width="0.28"/>
<line x1="-6.2" y1="-10.7" x2="6.2" y2="-10.7" stroke="#2b2b2b" stroke-width="0.28"/>
<line x1="-6.2" y1="-13.3" x2="6.2" y2="-13.3" stroke="#2b2b2b" stroke-width="0.28"/>
<rect x="-15.6" y="-6" width="6" height="6" fill="#c9bfae" stroke="#3a2f25" stroke-width="0.28"/>
<rect x="9.6" y="-6" width="6" height="6" fill="#c9bfae" stroke="#3a2f25" stroke-width="0.28"/>
<rect x="-8.4" y="-55" width="16.8" height="5" fill="#c2b7a5" stroke="#3a2f25" stroke-width="0.28"/>
<polygon points="-9.4,-55 0,-59.2 9.4,-55" fill="#6d5a4a" stroke="#3a2f25" stroke-width="0.14"/>
<rect x="19.6" y="-1.7" width="0.5" height="1.7" fill="#3a2f25"/>
<g class="cote"><line x1="-6" y1="2.5" x2="6" y2="2.5" marker-start="url(#fl)" marker-end="url(#fl)"/><text x="0" y="3.4" font-size="1.5" transform="rotate(0 0 3.4)" text-anchor="middle">passage 12 m [A]</text></g>
<g class="cote"><line x1="-10.1" y1="0" x2="-10.1" y2="-17" marker-start="url(#fl)" marker-end="url(#fl)"/><text x="-9.2" y="-8.5" font-size="1.4" transform="rotate(-90 -9.2 -8.5)" text-anchor="middle">17 m</text></g>
<g class="cote"><line x1="32" y1="0" x2="32" y2="-50" marker-start="url(#fl)" marker-end="url(#fl)"/><text x="32.9" y="-25" font-size="1.4" transform="rotate(-90 32.9 -25)" text-anchor="middle">mur 50 m [C]</text></g>
<text x="-33.5" y="-57" font-size="1.8" fill="#2b241d">Porte intérieure [C] — élévation, face intérieure ; vantail battants 12 × 16 m [A] ; état intacte</text>
<text x="-33.5" y="-54.5" font-size="1.4" fill="#2b241d">1 treuils, 0 contrepoids, herse : oui, 4 trous d'assassin [A] — données : portes[] du lieu</text>
</svg>
